<svg width="36" height="44" viewBox="0 0 36 44" fill="none" xmlns="http://www.w3.org/2000/svg">
<path d="M18 32.5C19.65 32.5 21.0625 31.9125 22.2375 30.7375C23.4125 29.5625 24 28.15 24 26.5V20.5C24 18.85 23.4125 17.4375 22.2375 16.2625C21.0625 15.0875 19.65 14.5 18 14.5C16.35 14.5 14.9375 15.0875 13.7625 16.2625C12.5875 17.4375 12 18.85 12 20.5V26.5C12 28.15 12.5875 29.5625 13.7625 30.7375C14.9375 31.9125 16.35 32.5 18 32.5ZM15 28H21V25H15V28ZM15 22H21V19H15V22ZM18 35.5C16.375 35.5 14.8688 35.1 13.4813 34.3C12.0938 33.5 11 32.4 10.2 31H6V28H9.15C9.075 27.5 9.03125 27 9.01875 26.5C9.00625 26 9 25.5 9 25H6V22H9C9 21.5 9.00625 21 9.01875 20.5C9.03125 20 9.075 19.5 9.15 19H6V16H10.2C10.55 15.425 10.9438 14.8875 11.3813 14.3875C11.8188 13.8875 12.325 13.45 12.9 13.075L10.5 10.6L12.6 8.5L15.825 11.725C16.525 11.5 17.2375 11.3875 17.9625 11.3875C18.6875 11.3875 19.4 11.5 20.1 11.725L23.4 8.5L25.5 10.6L23.025 13.075C23.6 13.45 24.1188 13.8812 24.5813 14.3687C25.0438 14.8562 25.45 15.4 25.8 16H30V19H26.85C26.925 19.5 26.9688 20 26.9813 20.5C26.9938 21 27 21.5 27 22H30V25H27C27 25.5 26.9938 26 26.9813 26.5C26.9688 27 26.925 27.5 26.85 28H30V31H25.8C25 32.4 23.9062 33.5 22.5188 34.3C21.1313 35.1 19.625 35.5 18 35.5Z" fill="#4CAF50"/>
</svg>
