<svg width="36" height="44" viewBox="0 0 36 44" fill="none" xmlns="http://www.w3.org/2000/svg">
<path d="M18.4125 32.5C18.7125 32.475 18.9688 32.3562 19.1813 32.1437C19.3938 31.9312 19.5 31.675 19.5 31.375C19.5 31.025 19.3875 30.7437 19.1625 30.5312C18.9375 30.3187 18.65 30.225 18.3 30.25C17.275 30.325 16.1875 30.0437 15.0375 29.4062C13.8875 28.7687 13.1625 27.6125 12.8625 25.9375C12.8125 25.6625 12.6813 25.4375 12.4688 25.2625C12.2563 25.0875 12.0125 25 11.7375 25C11.3875 25 11.1 25.1312 10.875 25.3937C10.65 25.6562 10.575 25.9625 10.65 26.3125C11.075 28.5875 12.075 30.2125 13.65 31.1875C15.225 32.1625 16.8125 32.6 18.4125 32.5ZM18 37C14.575 37 11.7188 35.825 9.43125 33.475C7.14375 31.125 6 28.2 6 24.7C6 22.2 6.99375 19.4812 8.98125 16.5437C10.9688 13.6062 13.975 10.425 18 7C22.025 10.425 25.0312 13.6062 27.0188 16.5437C29.0063 19.4812 30 22.2 30 24.7C30 28.2 28.8563 31.125 26.5688 33.475C24.2812 35.825 21.425 37 18 37ZM18 34C20.6 34 22.75 33.1187 24.45 31.3562C26.15 29.5937 27 27.375 27 24.7C27 22.875 26.2438 20.8125 24.7313 18.5125C23.2188 16.2125 20.975 13.7 18 10.975C15.025 13.7 12.7812 16.2125 11.2688 18.5125C9.75625 20.8125 9 22.875 9 24.7C9 27.375 9.85 29.5937 11.55 31.3562C13.25 33.1187 15.4 34 18 34Z" fill="#2196F3"/>
</svg>
