<svg width="60" height="72" viewBox="0 0 60 72" fill="none" xmlns="http://www.w3.org/2000/svg">
<g opacity="0.7">
<path d="M27.5 16V8.5H32.5V16H27.5ZM27.5 63.5V56H32.5V63.5H27.5ZM50 38.5V33.5H57.5V38.5H50ZM2.5 38.5V33.5H10V38.5H2.5ZM46.75 22.75L43.25 19.25L47.625 14.75L51.25 18.375L46.75 22.75ZM12.375 57.25L8.75 53.625L13.25 49.25L16.75 52.75L12.375 57.25ZM47.625 57.25L43.25 52.75L46.75 49.25L51.25 53.625L47.625 57.25ZM13.25 22.75L8.75 18.375L12.375 14.75L16.75 19.25L13.25 22.75ZM30 51C25.8333 51 22.2917 49.5417 19.375 46.625C16.4583 43.7083 15 40.1667 15 36C15 31.8333 16.4583 28.2917 19.375 25.375C22.2917 22.4583 25.8333 21 30 21C34.1667 21 37.7083 22.4583 40.625 25.375C43.5417 28.2917 45 31.8333 45 36C45 40.1667 43.5417 43.7083 40.625 46.625C37.7083 49.5417 34.1667 51 30 51ZM30 46C32.7917 46 35.1562 45.0312 37.0938 43.0938C39.0312 41.1562 40 38.7917 40 36C40 33.2083 39.0312 30.8438 37.0938 28.9062C35.1562 26.9688 32.7917 26 30 26C27.2083 26 24.8438 26.9688 22.9062 28.9062C20.9688 30.8438 20 33.2083 20 36C20 38.7917 20.9688 41.1562 22.9062 43.0938C24.8438 45.0312 27.2083 46 30 46Z" fill="#FDE047"/>
</g>
</svg>
