<svg width="36" height="44" viewBox="0 0 36 44" fill="none" xmlns="http://www.w3.org/2000/svg">
<path d="M16.5 11.5V5.5H19.5V11.5H16.5ZM26.475 15.625L24.4125 13.5625L28.6125 9.25L30.7125 11.3875L26.475 15.625ZM28.5 23.5V20.5H34.5V23.5H28.5ZM16.5 38.5V32.5H19.5V38.5H16.5ZM9.525 15.55L5.25 11.3875L7.3875 9.2875L11.625 13.525L9.525 15.55ZM28.575 34.75L24.4125 30.4375L26.4375 28.4125L30.7125 32.5375L28.575 34.75ZM1.5 23.5V20.5H7.5V23.5H1.5ZM7.3875 34.75L5.2875 32.6125L9.4875 28.4125L10.575 29.425L11.6625 30.475L7.3875 34.75ZM18 31C15.5 31 13.375 30.125 11.625 28.375C9.875 26.625 9 24.5 9 22C9 19.5 9.875 17.375 11.625 15.625C13.375 13.875 15.5 13 18 13C20.5 13 22.625 13.875 24.375 15.625C26.125 17.375 27 19.5 27 22C27 24.5 26.125 26.625 24.375 28.375C22.625 30.125 20.5 31 18 31ZM18 28C19.65 28 21.0625 27.4125 22.2375 26.2375C23.4125 25.0625 24 23.65 24 22C24 20.35 23.4125 18.9375 22.2375 17.7625C21.0625 16.5875 19.65 16 18 16C16.35 16 14.9375 16.5875 13.7625 17.7625C12.5875 18.9375 12 20.35 12 22C12 23.65 12.5875 25.0625 13.7625 26.2375C14.9375 27.4125 16.35 28 18 28Z" fill="#1E40AF"/>
</svg>
